<svg xmlns="http://www.w3.org/2000/svg" height="16" viewBox="0 0 16 16" width="16"><path d="m12.62 6c-.093-.023-.2-.036-.31-.036s-.217.013-.319.038c-.045-.33-.192-.616-.402-.843-.257-.259-.614-.42-1.008-.42-.018 0-.036 0-.053.001 0 0-.004 0-.007 0-.22 0-.43.044-.621.124-.062-.183-.163-.336-.29-.464-.261-.25-.617-.403-1.008-.403-.036 0-.072.001-.107.004h.005c.315-.414.505-.938.505-1.506 0-1.381-1.119-2.5-2.5-2.5s-2.5 1.119-2.5 2.5c0 .813.388 1.535.989 1.992l.006 2.664c-.554.015-1.054.233-1.432.581-.568.619-.568 1.579-.568 2.779v.72c.032 1.127.573 2.121 1.402 2.764l.358.356c1.24 1.27 2.38 1.65 5.02 1.65 2.88 0 4.22-1.61 4.22-5.06v-2.51c0-.77-.22-2.12-1.38-2.43zm.38 2.35v2.59c0 3.37-1.29 4.06-3.22 4.06-2.6 0-3.4-.39-4.3-1.33l-.36-.37c-.657-.468-1.088-1.215-1.12-2.065 0-.265 0-.505 0-.735-.033-.178-.053-.383-.053-.592 0-.538.126-1.047.351-1.498.186-.132.431-.228.698-.24l.003.7v-.22l-.34 1.5c-.01.022-.016.048-.016.075 0 .103.083.186.186.186.075 0 .14-.045.17-.11l1-1.211c.003-.014.005-.029.005-.045s-.002-.031-.005-.046v-5.609c0-.012-.001-.026-.001-.039 0-.256.083-.492.223-.684.091-.096.223-.158.369-.158.01 0 .02 0 .03.001-.001 0-.001 0-.001 0 .21 0 .38.17.38.38v.011 3.869c0 .276.224.5.5.5s.5-.224.5-.5v-1.32c.01-.251.217-.451.47-.451.011 0 .021 0 .032.001.023-.005.051-.008.079-.008.232 0 .42.188.42.42 0 .01 0 .02-.001.029v1.329c0 .276.224.5.5.5s.5-.224.5-.5v-.64c.034-.218.22-.383.445-.383.019 0 .038.001.057.004.013-.002.03-.003.047-.003.112 0 .214.043.291.113.1.129.16.294.16.473v.017.819c.003.252.193.459.438.49.021.003.043.004.066.004.241 0 .442-.166.496-.39.026-.112.082-.204.16-.273.033-.015.071-.024.111-.024s.078.009.112.024c.38.249.628.674.628 1.157 0 .057-.003.113-.01.169l.001-.007z" fill="#666"/>
</svg>