<svg width="30" height="30" viewBox="0 0 30 30" fill="none" xmlns="http://www.w3.org/2000/svg">
<path d="M23.834 9.24996H15.5007L13.4173 7.16663H7.16732C6.02148 7.16663 5.08398 8.10413 5.08398 9.24996V21.75C5.08398 22.8958 6.02148 23.8333 7.16732 23.8333H23.834C24.9798 23.8333 25.9173 22.8958 25.9173 21.75V11.3333C25.9173 10.1875 24.9798 9.24996 23.834 9.24996ZM23.834 21.75H7.16732V9.24996H12.5527L14.6361 11.3333H23.834V21.75ZM15.6673 15.5H11.334V17.5833H15.6673L14.0111 19.2395L15.4902 20.7083L19.6673 16.552L15.4902 12.375L14.0215 13.8437L15.6673 15.5Z" fill="#474543"/>
</svg>
